<svg viewBox="-34.5 -36.5 521 480"
  xmlns="http://www.w3.org/2000/svg"
  xmlns:bx="https://boxy-svg.com">
  <path fill-rule="evenodd" clip-rule="evenodd" d="M 262.734 293.3 C 259.513 295.408 255.026 296.958 251.169 295.24 C 239.181 289.899 236.314 279.421 225.38 272.162 C 214.797 265.136 203.266 250.544 203.584 250.316 C 203.851 250.125 180.569 231.593 173.612 222.956 C 159.71 205.697 130.211 192.357 118.7 173.266 C 117.679 171.573 117.873 169.283 118.289 167.351 C 118.739 165.258 119.892 163.321 121.204 161.629 C 133.803 145.383 146.33 131.94 161.148 117.711 C 219.144 62.022 228.228 54.88 287.929 1.044 C 299.158 -9.082 312.495 -23.285 327.251 -28.799 C 353.078 -38.451 405.166 -32.088 428.737 -28.863 C 440.26 -27.286 453.963 -29.134 462.878 -21.665 C 477.067 -9.779 474.948 31.509 475.529 45.221 C 476.304 63.504 478.165 86.305 470.651 103.315 C 464.373 117.527 448.995 129.415 438.197 139.544 C 417.253 159.191 396.603 179.154 375.471 198.6 C 354.34 218.045 332.996 237.262 311.418 256.21 C 290.425 274.644 271.274 287.712 262.734 293.3 Z" style="fill: rgb(255, 182, 5); transform-origin: 297.132px 131.028px;" />
  <path fill-rule="evenodd" clip-rule="evenodd" d="M 10.23 197.8 C 17.717 204.711 17.691 215.904 10.23 222.792 L 6.297 226.398 C 2.944 229.492 2.944 234.496 6.297 237.59 C 9.674 240.685 15.119 240.685 18.499 237.59 L 61.657 197.8 C 69.144 190.914 81.245 190.914 88.707 197.8 C 96.194 204.711 96.17 215.904 88.707 222.792 L 45.549 262.58 C 27.222 279.448 -2.426 279.448 -20.753 262.58 C -39.056 245.686 -39.056 218.299 -20.753 201.408 L -16.82 197.8 C -9.333 190.914 2.768 190.914 10.23 197.8 Z M 124.277 295.877 C 131.665 302.857 131.513 314.025 123.975 320.844 L 80.337 360.214 C 72.8 367.053 60.675 366.915 53.287 359.935 C 45.902 352.978 46.028 341.785 53.59 334.968 L 97.203 295.598 C 104.765 288.779 116.868 288.895 124.277 295.877 Z M 229.73 328.964 C 237.219 335.875 237.192 347.043 229.73 353.953 L 186.571 393.744 C 183.218 396.814 183.218 401.817 186.571 404.912 C 189.924 408.007 195.396 408.007 198.749 404.912 L 202.68 401.306 C 210.169 394.393 222.269 394.418 229.73 401.306 C 237.219 408.216 237.192 419.385 229.73 426.295 L 225.799 429.901 C 207.496 446.772 177.824 446.772 159.521 429.901 C 141.194 413.008 141.194 385.623 159.521 368.73 L 202.68 328.94 C 210.169 322.054 222.269 322.054 229.73 328.964 Z" fill="#1C274C" style="transform-origin: 100.428px 317.595px;" />
  <g opacity="0.5" transform="matrix(25.209756851196, 0, 0, 23.268264770508, 232.972622980265, 172.547727130805)" style="transform-origin: 12.0889px 11.9071px;">
    <path d="M10.8461 5.40925L8.65837 7.59037C8.25624 7.99126 7.88737 8.35901 7.59606 8.69145C7.40899 8.90494 7.22204 9.13861 7.06368 9.39679L7.04237 9.37554C7.00191 9.3352 6.98165 9.31501 6.96133 9.29529C6.58108 8.92635 6.1338 8.63301 5.64342 8.43097C5.61722 8.42018 5.59062 8.40964 5.53743 8.38856L5.2117 8.25949C4.77043 8.08464 4.65283 7.51659 4.9886 7.18184C5.95224 6.22112 7.10923 5.06765 7.6676 4.83597C8.16004 4.63166 8.692 4.56368 9.20505 4.6395C9.67514 4.70897 10.1198 4.95043 10.8461 5.40925Z" fill="#1C274C" />
    <path d="M14.5816 16.8934C14.7579 17.0723 14.8749 17.1987 14.9808 17.3337C15.1204 17.5119 15.2453 17.7012 15.3542 17.8996C15.4767 18.123 15.5718 18.3616 15.7621 18.8389C15.9169 19.2274 16.4315 19.3301 16.7303 19.0322L16.8026 18.9601C17.7662 17.9993 18.9232 16.8458 19.1556 16.2891C19.3605 15.7982 19.4287 15.2678 19.3526 14.7563C19.283 14.2877 19.0408 13.8444 18.5807 13.1205L16.3857 15.3089C15.9745 15.7189 15.5974 16.0949 15.2564 16.3894C15.052 16.5659 14.8284 16.7423 14.5816 16.8934Z" fill="#1f4c1c" />
  </g>
  <g opacity="0.5" transform="matrix(25.209756851196, 0, 0, 23.268264770508, 121.461757037581, 274.674430057261)" style="transform-origin: 7.48287px 16.4933px;">
    <path d="M7.68621 14.5633C7.98263 14.2669 7.98263 13.7863 7.68621 13.4899C7.38979 13.1935 6.90919 13.1935 6.61277 13.4899L4.47036 15.6323C4.17394 15.9287 4.17394 16.4093 4.47036 16.7057C4.76679 17.0021 5.24738 17.0021 5.5438 16.7057L7.68621 14.5633Z" fill="#1C274C" />
    <path d="M10.4954 17.369C10.7918 17.0726 10.7918 16.592 10.4954 16.2956C10.1989 15.9992 9.71835 15.9992 9.42193 16.2956L7.29417 18.4233C6.99774 18.7198 6.99774 19.2003 7.29417 19.4968C7.59059 19.7932 8.07118 19.7932 8.36761 19.4968L10.4954 17.369Z" fill="#1C274C" />
  </g>
  <path d="M 254.419 -62.595 L 248.013 94.701 L 249.351 257.752 C 249.351 257.752 277.213 235.926 270.965 260.638 L 298.289 250.973 L 296.574 94.701 L 300.439 -106.832 L 272.72 -82.417 L 254.419 -62.595 Z" style="stroke: rgb(11, 11, 11); fill: rgb(11, 11, 11); transform-origin: 274.226px 76.903px;" transform="matrix(0.681997895241, 0.731353998184, -0.731353998184, 0.681997895241, -0.000006319157, 0.000010343393)" />
  <path d="M 334.007 300.413 L 332.247 146.722 L 334.344 -8.402 L 357.881 -18.345 L 381.002 -23.998 L 380.808 146.722 L 377.722 342.362 L 356.954 323.839 L 334.007 300.413 Z" style="stroke: rgb(11, 11, 11); fill: rgb(11, 11, 11); transform-origin: 356.602px 160.997px;" transform="matrix(-0.68199890852, -0.731352984905, 0.731352984905, -0.68199890852, 0.000026680204, 0.000021674799)" />
  <path d="M 424.894 36.827 Q 444.245 17.208 463.595 36.827 L 523.121 97.178 Q 542.472 116.797 503.77 116.797 L 384.719 116.797 Q 346.017 116.797 365.368 97.178 Z" style="stroke: rgba(0, 0, 0, 0); fill: rgb(210, 192, 159); transform-origin: 444.244px 71.9072px;" transform="matrix(0.681997895241, 0.731353998184, -0.731353998184, 0.681997895241, -1.405934366878, -65.62192658594)" bx:shape="triangle 346.017 17.208 196.455 99.589 0.5 0.197 1@a086eeec" />
  <path d="M 460.249 18.908 L 478.424 46.392 L 442.074 46.392 L 460.249 18.908 Z" style="stroke: rgba(0, 0, 0, 0); fill: rgb(105, 105, 105); transform-origin: 460.249px 32.65px;" transform="matrix(0.707106113434, 0.707107007504, -0.707107007504, 0.707106113434, 16.402257223048, -59.426661066038)" bx:shape="triangle 442.074 18.908 36.35 27.484 0.5 0 1@f609e416" />
  <path d="M 87.762 231.009 L 276.178 226.665 L 261.73 243.443 L 96.719 244.751 L 87.762 231.009 Z" style="stroke: rgba(0, 0, 0, 0); fill: rgb(216, 15, 15); transform-origin: 181.97px 235.708px;" transform="matrix(0.707107007504, 0.707106113434, -0.707106113434, 0.707107007504, -0.000002165349, 0.00002003788)" />
</svg>
